HIERARCHY
ROOT Hips
{
  OFFSET 61.9788 92.4343 7.50036
  CHANNELS 6 Xposition Yposition Zposition Zrotation Xrotation Yrotation
  JOINT spine
  {
    OFFSET 0 7.4756 0.429885
    CHANNELS 3 Zrotation Xrotation Yrotation
    JOINT spine1
    {
      OFFSET 0 9.92301 0
      CHANNELS 3 Zrotation Xrotation Yrotation
      JOINT spine2
      {
        OFFSET 0 9.50804 0
        CHANNELS 3 Zrotation Xrotation Yrotation
        JOINT Neck
        {
          OFFSET 0 24.4111 1.16384
          CHANNELS 3 Zrotation Xrotation Yrotation
          JOINT Head
          {
            OFFSET 0 7.37523 0
            CHANNELS 3 Zrotation Xrotation Yrotation
            End Site
            {
              OFFSET 0 17.8522 -5.88741
            }
          }
        }
        JOINT RightShoulder
        {
          OFFSET -4.00356 10.2679 -0.557468
          CHANNELS 3 Zrotation Xrotation Yrotation
          JOINT RightArm
          {
            OFFSET 0 13.4673 0
            CHANNELS 3 Zrotation Xrotation Yrotation
            JOINT RightArmRoll
            {
              OFFSET 0 6.79858 0
              CHANNELS 3 Zrotation Xrotation Yrotation
              JOINT RightForeArm
              {
                OFFSET 0 19.8018 0
                CHANNELS 3 Zrotation Xrotation Yrotation
                JOINT RightForeArmRoll
                {
                  OFFSET 0 7.62905 0
                  CHANNELS 3 Zrotation Xrotation Yrotation
                  JOINT RightHand
                  {
                    OFFSET 0 15.3098 0
                    CHANNELS 3 Zrotation Xrotation Yrotation
                    End Site
                    {
                      OFFSET 0 0 0
                    }
                  }
                }
              }
            }
          }
        }
        JOINT LeftShoulder
        {
          OFFSET 4.00356 10.2679 -0.557468
          CHANNELS 3 Zrotation Xrotation Yrotation
          JOINT LeftArm
          {
            OFFSET 0 13.4673 0
            CHANNELS 3 Zrotation Xrotation Yrotation
            JOINT LeftArmRoll
            {
              OFFSET 0 6.79858 0
              CHANNELS 3 Zrotation Xrotation Yrotation
              JOINT LeftForeArm
              {
                OFFSET 0 19.8018 0
                CHANNELS 3 Zrotation Xrotation Yrotation
                JOINT LeftForeArmRoll
                {
                  OFFSET 0 7.62906 0
                  CHANNELS 3 Zrotation Xrotation Yrotation
                  JOINT LeftHand
                  {
                    OFFSET 0 15.3098 0
                    CHANNELS 3 Zrotation Xrotation Yrotation
                    End Site
                    {
                      OFFSET 0 0 0
                    }
                  }
                }
              }
            }
          }
        }
      }
    }
  }
  JOINT RightUpLeg
  {
    OFFSET -6.62609 -1.21505 -1.01927
    CHANNELS 3 Zrotation Xrotation Yrotation
    JOINT RightUpLegRoll
    {
      OFFSET 0 17.9517 0
      CHANNELS 3 Zrotation Xrotation Yrotation
      JOINT RightLeg
      {
        OFFSET 0 -22.2304 0
        CHANNELS 3 Zrotation Xrotation Yrotation
        JOINT RightLegRoll
        {
          OFFSET 0 22.3032 0
          CHANNELS 3 Zrotation Xrotation Yrotation
          JOINT RightFoot
          {
            OFFSET 0 18.5636 0
            CHANNELS 3 Zrotation Xrotation Yrotation
            JOINT RightToeBase
            {
              OFFSET 0 15.5183 0
              CHANNELS 3 Zrotation Xrotation Yrotation
              End Site
              {
                OFFSET 0.00657761 7.51538 -0.866263
              }
            }
          }
        }
      }
    }
  }
  JOINT LeftUpLeg
  {
    OFFSET 6.62609 -1.21505 -1.01927
    CHANNELS 3 Zrotation Xrotation Yrotation
    JOINT LeftUpLegRoll
    {
      OFFSET 0 17.9518 0
      CHANNELS 3 Zrotation Xrotation Yrotation
      JOINT LeftLeg
      {
        OFFSET 0 22.2303 0
        CHANNELS 3 Zrotation Xrotation Yrotation
        JOINT LeftLegRoll
        {
          OFFSET 0 22.5093 0
          CHANNELS 3 Zrotation Xrotation Yrotation
          JOINT LeftFoot
          {
            OFFSET 0 18.3575 0
            CHANNELS 3 Zrotation Xrotation Yrotation
            JOINT LeftToeBase
            {
              OFFSET 0 15.5183 0
              CHANNELS 3 Zrotation Xrotation Yrotation
              End Site
              {
                OFFSET -0.029478 7.51539 -0.866263
              }
            }
          }
        }
      }
    }
  }
}
MOTION
Frames: 13
Frame Time: 0.00208333
59.9947 92.7033 7.89258 0.362889 -6.88469 -1.52101 0.147761 -0.351926 -0.0568306 0.2963 3.29878 -0.133973 0.298753 4.94385 -0.139113 -12.6821 6.19711 0.0883183 11.6302 5.88494 -2.02175 66.02 -0.496593 -1.1442 108.21 -1.51226 25.9008 -1.96672e-007 -4.80975e-007 -8.20436e-006 3.76359 2.50372 -1.32931 -3.38706e-006 -2.82897e-007 -3.00536 8.02976 -4.95143 0.697664 -77.5311 -1.67049 2.8359 -94.1939 15.8235 -23.1417 -9.91913e-007 1.63622e-006 2.95431e-006 -2.01909 0.020472 0.813489 -2.07906e-006 -1.30361e-006 3.01171 -8.03002 -4.95139 -0.69764 173.634 6.99781 4.47566 180 7.01523e-015 178.822 177.339 28.5733 179.615 -3.65438e-006 3.13413e-006 0.456183 -19.0729 68.3466 19.8426 8.17806 29.1156 -0.535217 175.966 -1.90397 3.94453 -1.07169e-005 -4.64205e-006 -1.16754 -4.57996 -10.2312 -0.177488 -2.57371e-006 -7.3319e-006 -0.128532 21.1165 70.336 -21.7228 -8.13649 25.2326 3.48773 
59.9642 92.7029 7.85787 0.365155 -6.89239 -1.54027 0.148465 -0.351836 -0.055971 0.297856 3.29895 -0.134553 0.300814 4.94402 -0.139757 -12.6749 6.23971 0.100333 11.608 5.87186 -2.01239 66.0463 -0.49526 -1.14638 108.161 -1.42133 25.8937 -1.96672e-007 -4.80975e-007 -8.20436e-006 3.75238 2.48283 -1.32804 -3.38706e-006 -2.82897e-007 -3.00536 8.02976 -4.95143 0.697664 -77.5078 -1.67686 2.83644 -94.2272 15.8353 -23.074 -9.91913e-007 1.63622e-006 2.95431e-006 -2.06434 0.0206652 0.813515 -2.07906e-006 -1.30361e-006 3.01171 -8.03002 -4.95139 -0.69764 173.619 6.99012 4.48689 180 7.01523e-015 178.822 177.332 28.5662 179.617 -3.65438e-006 3.13413e-006 0.456195 -19.0747 68.3487 19.8445 8.17768 29.1108 -0.534904 175.957 -1.90688 3.94828 -1.07169e-005 -4.64205e-006 -1.16754 -4.57979 -10.2394 -0.177566 -2.57371e-006 -7.3319e-006 -0.128532 21.1203 70.3369 -21.725 -8.13649 25.2326 3.48773 
59.9778 92.7041 7.86553 0.3674 -6.90014 -1.55942 0.149161 -0.351706 -0.0550417 0.299405 3.29921 -0.135142 0.302903 4.94428 -0.140412 -12.6676 6.28188 0.112184 11.5855 5.85933 -2.00321 66.0719 -0.493891 -1.14846 108.114 -1.33071 25.8856 -1.96672e-007 -4.80975e-007 -8.20436e-006 3.74182 2.46189 -1.32674 -3.38706e-006 -2.82897e-007 -3.00536 8.02976 -4.95143 0.697664 -77.4839 -1.68327 2.83695 -94.2607 15.8474 -23.0065 -9.91913e-007 1.63622e-006 2.95431e-006 -2.10929 0.0208511 0.81359 -2.07906e-006 -1.30361e-006 3.01171 -8.03002 -4.95139 -0.69764 173.605 6.98225 4.49818 180 7.01523e-015 178.822 177.324 28.5592 179.62 -3.65438e-006 3.13413e-006 0.456213 -19.0767 68.351 19.8467 8.17728 29.1058 -0.534561 175.948 -1.90985 3.95209 -1.07169e-005 -4.64205e-006 -1.16753 -4.57955 -10.2476 -0.177623 -2.57371e-006 -7.3319e-006 -0.128532 21.1241 70.3376 -21.7273 -8.13649 25.2326 3.48773 
59.9573 92.6995 7.8494 0.369629 -6.90793 -1.57848 0.149852 -0.351547 -0.0540637 0.30095 3.29953 -0.135737 0.305012 4.94459 -0.141075 -12.6602 6.32374 0.123922 11.5628 5.84719 -1.99415 66.097 -0.492495 -1.15046 108.068 -1.24032 25.8767 -1.96672e-007 -4.80975e-007 -8.20436e-006 3.73173 2.4409 -1.32541 -3.38706e-006 -2.82897e-007 -3.00536 8.02976 -4.95143 0.697664 -77.4595 -1.68971 2.83742 -94.2944 15.8596 -22.9391 -9.91912e-007 1.63622e-006 2.95431e-006 -2.15402 0.0210318 0.813702 -2.07906e-006 -1.30361e-006 3.01171 -8.03002 -4.95139 -0.69764 173.59 6.97427 4.50951 180 7.01523e-015 178.822 177.317 28.5521 179.622 -3.65438e-006 3.13413e-006 0.456235 -19.0788 68.3535 19.8489 8.17688 29.1007 -0.534196 175.939 -1.91288 3.95593 -1.07169e-005 -4.64205e-006 -1.16752 -4.57927 -10.2559 -0.177665 -2.57371e-006 -7.3319e-006 -0.128532 21.1279 70.3382 -21.7294 -8.13649 25.2326 3.48773 
59.9604 92.7027 7.84703 0.371847 -6.91574 -1.5975 0.15054 -0.351372 -0.0530579 0.302492 3.29988 -0.136336 0.307131 4.94494 -0.141743 -12.6529 6.36543 0.135595 11.5399 5.83526 -1.98517 66.1218 -0.491084 -1.15243 108.022 -1.15005 25.8675 -1.96672e-007 -4.80975e-007 -8.20436e-006 3.72191 2.41989 -1.32406 -3.38706e-006 -2.82897e-007 -3.00536 8.02976 -4.95143 0.697664 -77.435 -1.69616 2.83789 -94.3283 15.872 -22.8718 -9.91913e-007 1.63622e-006 2.95431e-006 -2.19863 0.0212096 0.813833 -2.07906e-006 -1.30361e-006 3.01171 -8.03002 -4.95139 -0.69764 173.576 6.96622 4.52086 180 7.01523e-015 178.822 177.309 28.5451 179.625 -3.65438e-006 3.13413e-006 0.45626 -19.081 68.356 19.8513 8.17647 29.0956 -0.533819 175.93 -1.91594 3.9598 -1.07169e-005 -4.64205e-006 -1.1675 -4.57896 -10.2641 -0.177698 -2.57371e-006 -7.3319e-006 -0.128532 21.1317 70.3388 -21.7316 -8.13649 25.2326 3.48773 
59.9767 92.6972 7.85067 0.374059 -6.92356 -1.61651 0.151227 -0.351193 -0.0520451 0.304034 3.30023 -0.136936 0.309254 4.9453 -0.142412 -12.6456 6.40708 0.147254 11.5171 5.82338 -1.97621 66.1465 -0.48967 -1.15438 107.977 -1.0598 25.8582 -1.96672e-007 -4.80975e-007 -8.20436e-006 3.71215 2.39887 -1.32271 -3.38706e-006 -2.82897e-007 -3.00536 8.02976 -4.95143 0.697664 -77.4103 -1.70262 2.83835 -94.3622 15.8843 -22.8045 -9.91913e-007 1.63622e-006 2.95431e-006 -2.24321 0.0213867 0.813969 -2.07906e-006 -1.30361e-006 3.01171 -8.03002 -4.95139 -0.69764 173.561 6.95815 4.53222 180 7.01523e-015 178.822 177.302 28.538 179.627 -3.65438e-006 3.13413e-006 0.456285 -19.0832 68.3585 19.8537 8.17605 29.0904 -0.533439 175.921 -1.919 3.96367 -1.07169e-005 -4.64205e-006 -1.16748 -4.57864 -10.2724 -0.17773 -2.57371e-006 -7.3319e-006 -0.128532 21.1356 70.3394 -21.7337 -8.13649 25.2326 3.48773 
59.9711 92.6982 7.84296 0.376268 -6.93136 -1.63554 0.151915 -0.351022 -0.0510462 0.305577 3.30057 -0.137534 0.311371 4.94563 -0.143079 -12.6384 6.44881 0.158948 11.4942 5.8114 -1.96722 66.1713 -0.488263 -1.15636 107.931 -0.969473 25.8492 -1.96672e-007 -4.80975e-007 -8.20436e-006 3.70225 2.37786 -1.32138 -3.38706e-006 -2.82897e-007 -3.00536 8.02976 -4.95143 0.697664 -77.3858 -1.70907 2.83881 -94.396 15.8966 -22.7371 -9.91913e-007 1.63622e-006 2.95431e-006 -2.28785 0.0215652 0.814096 -2.07906e-006 -1.30361e-006 3.01171 -8.03002 -4.95139 -0.69764 173.546 6.95012 4.54357 180 7.01523e-015 178.822 177.294 28.531 179.63 -3.65438e-006 3.13413e-006 0.456309 -19.0854 68.361 19.856 8.17564 29.0853 -0.533066 175.912 -1.92205 3.96753 -1.07169e-005 -4.64205e-006 -1.16747 -4.57834 -10.2807 -0.177766 -2.57371e-006 -7.3319e-006 -0.128532 21.1394 70.34 -21.7359 -8.13649 25.2326 3.48773 
60.0225 92.6966 7.87843 0.378479 -6.93914 -1.65463 0.152607 -0.350871 -0.0500822 0.307123 3.30087 -0.138127 0.313474 4.94593 -0.14374 -12.6311 6.49076 0.170727 11.4716 5.79914 -1.95813 66.1966 -0.486875 -1.15839 107.885 -0.878964 25.8408 -1.96672e-007 -4.80975e-007 -8.20436e-006 3.69204 2.35689 -1.32005 -3.38706e-006 -2.82897e-007 -3.00536 8.02976 -4.95143 0.697664 -77.3616 -1.7155 2.8393 -94.4298 15.9087 -22.6697 -9.91913e-007 1.63622e-006 2.95431e-006 -2.33265 0.0217474 0.814197 -2.07906e-006 -1.30361e-006 3.01171 -8.03002 -4.95139 -0.69764 173.532 6.94217 4.55489 180 7.01523e-015 178.822 177.287 28.524 179.632 -3.65438e-006 3.13413e-006 0.45633 -19.0875 68.3633 19.8582 8.17524 29.0802 -0.532707 175.904 -1.92506 3.97137 -1.07169e-005 -4.64205e-006 -1.16745 -4.57807 -10.2889 -0.177812 -2.57371e-006 -7.3319e-006 -0.128532 21.1432 70.3407 -21.7381 -8.13649 25.2326 3.48773 
60.014 92.6945 7.8675 0.380697 -6.94687 -1.67382 0.153306 -0.350753 -0.0491738 0.308674 3.3011 -0.138713 0.315555 4.94617 -0.144392 -12.6239 6.53306 0.18264 11.4492 5.78644 -1.9489 66.2224 -0.485516 -1.1605 107.837 -0.78818 25.8334 -1.96672e-007 -4.80975e-007 -8.20436e-006 3.68129 2.33596 -1.31876 -3.38706e-006 -2.82897e-007 -3.00536 8.02976 -4.95143 0.697664 -77.3379 -1.7219 2.83981 -94.4633 15.9206 -22.6021 -9.91913e-007 1.63622e-006 2.95431e-006 -2.37768 0.0219355 0.814257 -2.07906e-006 -1.30361e-006 3.01171 -8.03002 -4.95139 -0.69764 173.517 6.93436 4.56616 180 7.01523e-015 178.822 177.279 28.5169 179.634 -3.65438e-006 3.13413e-006 0.456346 -19.0894 68.3656 19.8603 8.17484 29.0753 -0.532373 175.895 -1.92801 3.97516 -1.07169e-005 -4.64205e-006 -1.16745 -4.57786 -10.2971 -0.177875 -2.57371e-006 -7.3319e-006 -0.128532 21.147 70.3414 -21.7403 -8.13649 25.2326 3.48773 
60.0281 92.6872 7.85211 0.382927 -6.95454 -1.69314 0.154014 -0.35068 -0.0483421 0.310232 3.30125 -0.13929 0.317605 4.94631 -0.145031 -12.6169 6.57583 0.194737 11.4271 5.77315 -1.93947 66.249 -0.484199 -1.16271 107.788 -0.697024 25.8274 -1.96672e-007 -4.80975e-007 -8.20436e-006 3.66983 2.3151 -1.31751 -3.38706e-006 -2.82897e-007 -3.00536 8.02976 -4.95143 0.697664 -77.3148 -1.72826 2.84037 -94.4967 15.9321 -22.5342 -9.91913e-007 1.63622e-006 2.95431e-006 -2.42306 0.0221316 0.814263 -2.07906e-006 -1.30361e-006 3.01171 -8.03002 -4.95139 -0.69764 173.503 6.92674 4.57737 180 7.01523e-015 178.822 177.272 28.5099 179.637 -3.65438e-006 3.13413e-006 0.456356 -19.0912 68.3676 19.8622 8.17447 29.0706 -0.532073 175.886 -1.93089 3.97889 -1.07169e-005 -4.64205e-006 -1.16745 -4.57772 -10.3053 -0.177962 -2.57371e-006 -7.3319e-006 -0.128532 21.1508 70.3422 -21.7426 -8.13649 25.2326 3.48773 
60.0368 92.6851 7.85739 0.385173 -6.96214 -1.71262 0.154732 -0.350664 -0.0476078 0.311798 3.30128 -0.139854 0.319617 4.94634 -0.145655 -12.6099 6.61921 0.207068 11.4056 5.75909 -1.92978 66.2766 -0.482933 -1.16507 107.738 -0.6054 25.8231 -1.96672e-007 -4.80975e-007 -8.20436e-006 3.65744 2.29433 -1.3163 -3.38706e-006 -2.82897e-007 -3.00536 8.02976 -4.95143 0.697664 -77.2925 -1.73455 2.84098 -94.5297 15.9431 -22.4661 -9.91912e-007 1.63622e-006 2.95431e-006 -2.46886 0.0223381 0.814198 -2.07906e-006 -1.30361e-006 3.01171 -8.03002 -4.95139 -0.69764 173.489 6.91935 4.58849 180 7.01523e-015 178.822 177.265 28.5028 179.639 -3.65438e-006 3.13413e-006 0.456357 -19.0927 68.3693 19.8638 8.17411 29.0661 -0.531815 175.877 -1.93367 3.98255 -1.07169e-005 -4.64205e-006 -1.16746 -4.57767 -10.3135 -0.178078 -2.57371e-006 -7.3319e-006 -0.128532 21.1546 70.3433 -21.745 -8.13649 25.2326 3.48773 
60.0487 92.6873 7.8705 0.387439 -6.96964 -1.7323 0.155464 -0.350718 -0.0469919 0.313374 3.30117 -0.140403 0.321582 4.94623 -0.146259 -12.603 6.66332 0.219682 11.3845 5.7441 -1.91979 66.3054 -0.481732 -1.1676 107.684 -0.513216 25.8208 -1.96672e-007 -4.80975e-007 -8.20436e-006 3.64394 2.27366 -1.31516 -3.38706e-006 -2.82897e-007 -3.00536 8.02976 -4.95143 0.697664 -77.2713 -1.74078 2.84165 -94.5623 15.9536 -22.3977 -9.91913e-007 1.63622e-006 2.95431e-006 -2.51518 0.022557 0.814047 -2.07906e-006 -1.30361e-006 3.01171 -8.03002 -4.95139 -0.69764 173.475 6.91226 4.59951 180 7.01523e-015 178.822 177.258 28.4958 179.641 -3.65438e-006 3.13413e-006 0.456349 -19.0939 68.3708 19.8652 8.17377 29.0619 -0.53161 175.869 -1.93633 3.98611 -1.07169e-005 -4.64205e-006 -1.16748 -4.57774 -10.3216 -0.178231 -2.57371e-006 -7.3319e-006 -0.128532 21.1583 70.3444 -21.7475 -8.13649 25.2326 3.48773 
60.0555 92.6804 7.86727 0.38973 -6.97703 -1.75222 0.156212 -0.350853 -0.0465152 0.314963 3.3009 -0.140934 0.323491 4.94595 -0.14684 -12.5962 6.7083 0.232629 11.3641 5.72801 -1.90944 66.3358 -0.480604 -1.17033 107.629 -0.420377 25.821 -1.96672e-007 -4.80975e-007 -8.20436e-006 3.62913 2.25311 -1.31409 -3.38706e-006 -2.82897e-007 -3.00536 8.02976 -4.95143 0.697664 -77.2512 -1.74693 2.8424 -94.5944 15.9635 -22.3289 -9.91913e-007 1.63622e-006 2.95431e-006 -2.56211 0.0227907 0.813796 -2.07906e-006 -1.30361e-006 3.01171 -8.03002 -4.95139 -0.69764 173.46 6.90552 4.61041 180 7.01523e-015 178.822 177.251 28.4887 179.644 -3.65438e-006 3.13413e-006 0.456328 -19.0948 68.3718 19.8662 8.17346 29.058 -0.531465 175.86 -1.93885 3.98957 -1.07169e-005 -4.64205e-006 -1.16751 -4.57795 -10.3297 -0.178425 -2.57371e-006 -7.3319e-006 -0.128532 21.1621 70.3458 -21.7501 -8.13649 25.2326 3.48773 
